<?xml version="1.0" encoding="utf-8"?>
<!-- Generator: Adobe Illustrator 27.5.0, SVG Export Plug-In . SVG Version: 6.00 Build 0)  -->
<svg version="1.1" id="Website_Builder_2_" xmlns="http://www.w3.org/2000/svg" xmlns:xlink="http://www.w3.org/1999/xlink" x="0px"
	 y="0px" viewBox="0 0 1200 1200" style="enable-background:new 0 0 1200 1200;" xml:space="preserve">
<g id="Website_Builder_1_">
	<circle id="Background_28_" style="fill:rgba(7,151,98,0.5);" cx="600" cy="600" r="525"/>
	<g id="Website_Builder">
		<path id="Compound_2_" style="fill-rule:evenodd;clip-rule:evenodd;fill:#FFFFFF;" d="M1124.859,588.727
			c-0.047-2.244-0.129-4.483-0.199-6.715h-59.197v-57.053h54.176c-0.322-2.238-0.639-4.482-0.984-6.715h-53.191v-56.83h41.016
			c-0.615-2.238-1.225-4.482-1.863-6.709h-39.152v-57.053h19.096c-0.938-2.256-1.91-4.482-2.877-6.721h-16.219h-4.447h-4.447
			h-77.121h-4.67h-4.441h-77.121h-4.447h-4.67h-77.121h-4.441h-4.453h-77.121h-4.67h-4.441h-81.568h-4.67v3.357v60.416v3.357v3.352
			v56.83v3.358v3.357v57.053v3.357v3.358v56.824v3.363v3.352v60.182v3.357h4.67h81.568h4.441h4.67h77.121h4.453h4.441h77.121h4.67
			h4.447h77.121h4.441h4.67h77.121h4.447h4.447h46.693c0.504-2.227,0.99-4.465,1.465-6.709h-48.158v-56.83h56.953
			c0.223-2.232,0.404-4.471,0.592-6.715h-57.545v-56.824H1124.859z M711.85,709.096h-77.127v-56.83h77.127V709.096z M711.85,645.551
			h-77.127v-56.824h77.127V645.551z M711.85,582.012h-77.127v-57.053h77.127V582.012z M711.85,518.244h-77.127v-56.83h77.127
			V518.244z M711.85,454.705h-77.127v-57.053h77.127V454.705z M798.082,709.096h-77.121v-56.83h77.121V709.096z M798.082,645.551
			h-77.121v-56.824h77.121V645.551z M798.082,582.012h-77.121v-57.053h77.121V582.012z M798.082,518.244h-77.121v-56.83h77.121
			V518.244z M798.082,454.705h-77.121v-57.053h77.121V454.705z M884.098,709.096h-77.121v-56.83h77.121V709.096z M884.098,645.551
			h-77.121v-56.824h77.121V645.551z M884.098,582.012h-77.121v-57.053h77.121V582.012z M884.098,518.244h-77.121v-56.83h77.121
			V518.244z M884.098,454.705h-77.121v-57.053h77.121V454.705z M970.336,709.096h-77.121v-56.83h77.121V709.096z M970.336,645.551
			h-77.121v-56.824h77.121V645.551z M970.336,582.012h-77.121v-57.053h77.121V582.012z M970.336,518.244h-77.121v-56.83h77.121
			V518.244z M970.336,454.705h-77.121v-57.053h77.121V454.705z M1056.568,709.096h-77.121v-56.83h77.121V709.096z M1056.568,645.551
			h-77.121v-56.824h77.121V645.551z M1056.568,582.012h-77.121v-57.053h77.121V582.012z M1056.568,518.244h-77.121v-56.83h77.121
			V518.244z M1056.568,454.705h-77.121v-57.053h77.121V454.705z"/>
		<g id="Laptop_2_">
			<path style="fill-rule:evenodd;clip-rule:evenodd;fill:rgb(170,170,170);" d="M209.191,386.906h626.32
				c12.902,0,23.561,10.746,23.561,23.713V847.81H185.631V410.619C185.631,397.652,196.301,386.906,209.191,386.906L209.191,386.906
				z"/>
			<path style="fill-rule:evenodd;clip-rule:evenodd;fill:rgb(170,170,170);" d="M81.393,926.795h440.959h440.965
				c2.443,0,1.998-2.01-1.107-4.26l-94.688-73.154c-2.889-2.467-7.342-4.254-9.779-4.254H522.352H186.961
				c-2.438,0-6.885,1.787-9.773,4.254l-94.91,73.154C79.395,924.785,78.943,926.795,81.393,926.795L81.393,926.795z"/>
			<path style="fill-rule:evenodd;clip-rule:evenodd;fill:rgb(110,110,110);" d="M84.949,921.422c291.604,0,583.201,0,874.811,0
				c6.662,0,7.336,5.373,1.553,12.088l-12,13.635c-5.783,6.715-16.002,12.094-22.67,12.094c-269.602,0-538.98,0-808.576,0
				c-6.668,0-16.887-5.379-22.67-12.094l-12-13.635C77.613,926.795,78.281,921.422,84.949,921.422L84.949,921.422z"/>
			<polygon style="fill-rule:evenodd;clip-rule:evenodd;fill:#E6E6E6;" points="453.68,885.85 490.793,885.85 553.916,885.85 
				591.035,885.85 611.701,908.672 533.25,908.672 511.465,908.672 433.008,908.672 			"/>
			<rect x="206.742" y="422.484" style="fill-rule:evenodd;clip-rule:evenodd;fill:#99E6DC;" width="631.219" height="402.287"/>
		</g>
		<g id="Code">
			<polygon style="fill-rule:evenodd;clip-rule:evenodd;fill:#E84C40;" points="689.496,364.307 915.527,323.367 943.752,480.656 
				717.721,521.602 			"/>
			<path style="fill-rule:evenodd;clip-rule:evenodd;fill:#FFFFFF;" d="M739.06,440.83l-1.553-9.621l51.111-32.666l1.775,10.517
				l-40.664,25.283l46.67,10.963l1.775,10.295L739.06,440.83z M807.07,468.797l9.773-90.838l8.227-1.342l-9.779,90.844
				L807.07,468.797z M894.633,415.102l-51.117,32.889l-1.775-10.289l40.67-25.506l-46.453-10.74l-1.775-10.295l58.893,14.098
				L894.633,415.102z"/>
		</g>
		<g id="Browser_2_">
			<g>
				<path style="fill-rule:evenodd;clip-rule:evenodd;fill:#FFFFFF;" d="M138.07,444.633h587.871
					c7.781,0,14.227,6.264,14.227,14.098v320.613c0,7.828-6.445,14.326-14.227,14.326H138.07c-7.781,0-14.004-6.498-14.004-14.326
					V458.73C124.066,450.897,130.289,444.633,138.07,444.633L138.07,444.633z"/>
				<path style="fill-rule:evenodd;clip-rule:evenodd;fill:#353F49;" d="M136.289,444.633h591.428
					c6.674,0,12.451,5.602,12.451,12.305v38.484c0,0.451-0.662,1.119-1.108,1.119H124.066v-39.603
					C124.066,450.234,129.621,444.633,136.289,444.633L136.289,444.633z"/>
				<path style="fill-rule:evenodd;clip-rule:evenodd;fill:#F77B55;" d="M154.518,481.33c6.223,0,11.332-5.145,11.332-11.414
					c0-6.264-5.109-11.408-11.332-11.408c-6.229,0-11.338,5.145-11.338,11.408C143.18,476.185,148.289,481.33,154.518,481.33
					L154.518,481.33z"/>
				<path style="fill-rule:evenodd;clip-rule:evenodd;fill:#76D0DE;" d="M186.076,481.33c6.223,0,11.338-5.145,11.338-11.414
					c0-6.264-5.115-11.408-11.338-11.408c-6.217,0-11.332,5.145-11.332,11.408C174.744,476.185,179.859,481.33,186.076,481.33
					L186.076,481.33z"/>
				<path style="fill-rule:evenodd;clip-rule:evenodd;fill:#FFDB79;" d="M217.635,481.33c6.229,0,11.338-5.145,11.338-11.414
					c0-6.264-5.109-11.408-11.338-11.408c-6.223,0-11.332,5.145-11.332,11.408C206.303,476.185,211.412,481.33,217.635,481.33
					L217.635,481.33z"/>
				<rect x="246.088" y="460.295" style="fill-rule:evenodd;clip-rule:evenodd;fill:#FFFFFF;" width="476.525" height="21.703"/>
			</g>
			<g>
				<rect x="169.852" y="560.977" style="fill-rule:evenodd;clip-rule:evenodd;fill:#FFDB79;" width="318.053" height="139.172"/>
				<g>
					<rect x="173.408" y="516.68" style="fill-rule:evenodd;clip-rule:evenodd;fill:#CCCCCC;" width="132.24" height="16.781"/>
					<rect x="360.545" y="516.68" style="fill-rule:evenodd;clip-rule:evenodd;fill:#CCCCCC;" width="132.023" height="16.781"/>
					<rect x="548.133" y="516.68" style="fill-rule:evenodd;clip-rule:evenodd;fill:#CCCCCC;" width="132.029" height="16.781"/>
					<rect x="167.631" y="716.256" style="fill-rule:evenodd;clip-rule:evenodd;fill:#CCCCCC;" width="242.924" height="9.621"/>
					<rect x="213.855" y="734.379" style="fill-rule:evenodd;clip-rule:evenodd;fill:#CCCCCC;" width="243.152" height="9.621"/>
					<rect x="174.744" y="753.398" style="fill-rule:evenodd;clip-rule:evenodd;fill:#CCCCCC;" width="242.924" height="9.615"/>
				</g>
				<g>
					<rect x="514.131" y="560.977" style="fill-rule:evenodd;clip-rule:evenodd;fill:#F77B55;" width="256.037" height="178.096"/>
					<path style="fill-rule:evenodd;clip-rule:evenodd;fill:#4D4D4D;" d="M619.482,712.676c34.447,0,62.455-28.195,62.455-62.871
						c0-34.682-28.008-62.871-62.455-62.871c-34.453,0-62.455,28.189-62.455,62.871
						C557.027,684.481,585.029,712.676,619.482,712.676L619.482,712.676z"/>
					<polygon style="fill-rule:evenodd;clip-rule:evenodd;fill:#FFFFFF;" points="659.484,649.805 629.484,667.254 599.478,684.481 
						599.478,649.805 599.478,614.906 629.484,632.356 					"/>
				</g>
			</g>
		</g>
		<g id="Gears_3_">
			<path style="fill-rule:evenodd;clip-rule:evenodd;fill:#353F49;" d="M500.795,281.303c-6.674,3.58-12.445,8.508-16.893,14.32
				l-21.334-7.828l-12.223,33.334l21.334,7.834c0,3.58,0.217,7.377,0.885,11.186c0.668,3.803,1.781,7.383,3.117,10.746
				l-17.338,14.76l22.441,27.076l17.344-14.549c6.445,3.803,13.559,6.492,21.111,7.611l3.779,22.371l34.676-6.041l-4.002-22.6
				c6.662-3.574,12.445-8.496,17.115-14.32l21.34,7.834l11.994-33.34l-21.334-7.828c0.229-3.58,0-7.383-0.668-11.186
				c-0.662-3.803-1.775-7.383-3.111-10.74l17.338-14.766l-22.67-27.076l-17.338,14.766c-6.223-4.025-13.336-6.703-20.895-7.822
				l-4.002-22.383l-34.447,6.047L500.795,281.303z"/>
			<path style="fill-rule:evenodd;clip-rule:evenodd;fill:#353F49;" d="M266.977,207.92c-5.777,9.621-9.334,20.127-10.664,31.096
				l-32.895,6.264l9.551,50.795l32.672-6.047c2.672,4.699,5.783,9.182,9.563,13.424c3.557,4.254,7.559,8.057,11.783,11.414
				l-11.115,31.547l48.674,17.227l11.115-31.547c10.887,0.223,21.779-1.787,32.004-6.041l21.557,25.283l39.117-33.785
				l-21.563-25.283c5.783-9.615,9.34-20.133,10.676-31.102l32.666-6.035l-9.334-51.012l-32.672,6.041
				c-2.666-4.705-5.777-9.182-9.557-13.43c-3.551-4.248-7.553-8.057-11.777-11.414l11.115-31.541l-48.68-17.227l-11.109,31.541
				c-10.893,0-21.779,1.799-32.01,6.047l-21.557-25.283l-39.117,33.785L266.977,207.92z"/>
			<path style="fill-rule:evenodd;clip-rule:evenodd;fill:#FFFFFF;" d="M524.355,313.078c-9.562,1.559-16.008,10.734-14.449,20.355
				c1.781,9.621,10.892,16.113,20.449,14.32c9.557-1.564,16.002-10.734,14.227-20.361
				C543.023,317.772,533.906,311.285,524.355,313.078L524.355,313.078z M521.238,296.074c-18.668,3.352-31.342,21.475-28.002,40.494
				c3.34,18.791,21.34,31.553,40.014,28.189c18.885-3.357,31.33-21.48,28.219-40.272
				C558.141,305.467,540.135,292.717,521.238,296.074L521.238,296.074z"/>
			<path style="fill-rule:evenodd;clip-rule:evenodd;fill:#FFFFFF;" d="M320.098,230.514c-10.887,9.176-11.994,25.734-2.666,36.469
				c9.111,10.963,25.336,12.088,36.229,2.69c10.887-9.176,12-25.512,2.666-36.469C347.209,222.463,330.99,221.121,320.098,230.514
				L320.098,230.514z M303.873,211.494c-21.334,18.352-23.777,50.566-5.56,71.824c18.457,21.475,50.232,23.936,71.566,5.596
				c21.34-18.352,23.789-50.566,5.338-72.047C356.994,195.393,324.99,193.148,303.873,211.494L303.873,211.494z"/>
		</g>
		<path id="Points_12_" style="fill:#FFFFFF;" d="M929.314,200.76c2.66,0,4.658,2.684,4.658,5.813c0,3.357-1.998,6.047-4.658,6.047
			h-8.449c-2.672,0-4.67-2.689-4.67-6.047c0-3.129,1.998-5.813,4.67-5.813H929.314z M892.857,200.76c2.672,0,4.67,2.684,4.67,5.813
			c0,3.357-1.998,6.047-4.67,6.047h-9.334c-2.443,0-4.441-2.689-4.441-6.047c0-3.129,1.998-5.813,4.441-5.813H892.857z
			 M855.744,200.76c2.438,0,4.658,2.684,4.658,5.813c0,3.357-2.221,6.047-4.658,6.047h-9.334c-2.672,0-4.67-2.689-4.67-6.047
			c0-3.129,1.998-5.813,4.67-5.813H855.744z M818.396,200.76c2.678,0,4.67,2.684,4.67,5.813c0,3.357-1.992,6.047-4.67,6.047h-9.328
			c-2.449,0-4.441-2.689-4.441-6.047c0-3.129,1.992-5.813,4.441-5.813H818.396z M781.283,200.76c2.443,0,4.664,2.684,4.664,5.813
			c0,3.357-2.221,6.047-4.664,6.047h-9.328c-2.672,0-4.67-2.689-4.67-6.047c0-3.129,1.998-5.813,4.67-5.813H781.283z
			 M743.941,200.76c2.672,0,4.676,2.684,4.676,5.813c0,3.357-2.004,6.047-4.676,6.047h-9.334c-2.438,0-4.658-2.689-4.658-6.047
			c0-3.129,2.221-5.813,4.658-5.813H743.941z M706.828,200.76c2.443,0,4.67,2.684,4.67,5.813c0,3.357-2.227,6.047-4.67,6.047h-9.334
			c-2.672,0-4.664-2.689-4.664-6.047c0-3.129,1.992-5.813,4.664-5.813H706.828z M669.486,200.76c2.672,0,4.67,2.684,4.67,5.813
			c0,3.357-1.998,6.047-4.67,6.047h-9.334c-2.443,0-4.664-2.689-4.664-6.047c0-3.129,2.221-5.813,4.664-5.813H669.486z
			 M632.373,200.76c2.438,0,4.658,2.684,4.658,5.813c0,3.357-2.221,6.047-4.658,6.047h-9.334c-2.672,0-4.67-2.689-4.67-6.047
			c0-3.129,1.998-5.813,4.67-5.813H632.373z M595.031,200.76c2.666,0,4.664,2.684,4.664,5.813c0,3.357-1.998,6.047-4.664,6.047
			h-9.334c-2.443,0-4.67-2.689-4.67-6.047c0-3.129,2.227-5.813,4.67-5.813H595.031z M557.912,200.76c2.443,0,4.67,2.684,4.67,5.813
			c0,3.357-2.227,6.047-4.67,6.047h-9.328c-2.666,0-4.67-2.689-4.67-6.047c0-3.129,2.004-5.813,4.67-5.813H557.912z M520.576,200.76
			c2.666,0,4.67,2.684,4.67,5.813c0,3.357-2.004,6.047-4.67,6.047h-9.334c-2.443,0-4.67-2.689-4.67-6.047
			c0-3.129,2.227-5.813,4.67-5.813H520.576z M483.457,200.76c2.443,0,4.67,2.684,4.67,5.813c0,3.357-2.227,6.047-4.67,6.047h-9.334
			c-2.666,0-4.67-2.689-4.67-6.047c0-3.129,2.004-5.813,4.67-5.813H483.457z"/>
		<g id="Bullet_1_">
			<path style="fill-rule:evenodd;clip-rule:evenodd;fill:#FFFFFF;" d="M811.74,1017.41c6.217,0,11.326-5.373,11.326-11.643
				c0-6.252-5.109-11.631-11.326-11.631c-6.451,0-11.56,5.379-11.56,11.631C800.18,1012.037,805.289,1017.41,811.74,1017.41
				L811.74,1017.41z"/>
			<path style="fill-rule:evenodd;clip-rule:evenodd;fill:#FFFFFF;" d="M762.838,1020.762c7.107,0,13.113-5.824,13.113-13.201
				c0-7.377-6.006-13.424-13.113-13.424c-7.33,0-13.336,6.047-13.336,13.424C749.502,1014.938,755.508,1020.762,762.838,1020.762
				L762.838,1020.762z"/>
			<path style="fill-rule:evenodd;clip-rule:evenodd;fill:#FFFFFF;" d="M713.947,1025.238c8.443,0,15.334-6.932,15.334-15.439
				c0-8.725-6.891-15.662-15.334-15.662c-8.449,0-15.568,6.938-15.568,15.662C698.379,1018.307,705.498,1025.238,713.947,1025.238
				L713.947,1025.238z"/>
			<path style="fill-rule:evenodd;clip-rule:evenodd;fill:#FFFFFF;" d="M657.041,1030.828c10.225,0,18.223-8.273,18.223-18.346
				c0-10.066-7.998-18.346-18.223-18.346c-9.996,0-18.217,8.279-18.217,18.346C638.824,1022.555,647.045,1030.828,657.041,1030.828
				L657.041,1030.828z"/>
		</g>
		<g id="Hand_5_">
			<path style="fill-rule:evenodd;clip-rule:evenodd;fill:#FED9B1;" d="M1030.441,900.604V786.955
				c10.664-2.684,18.662-12.527,18.662-23.941V623.631c0-13.652-10.887-24.838-24.451-24.838c-13.559,0-24.668,11.185-24.668,24.838
				v-9.404c0-13.641-11.109-24.832-24.668-24.832c-13.336,0-24.445,11.191-24.445,24.832v-7.6c0-13.652-11.121-24.838-24.68-24.838
				c-13.547,0-24.668,11.185-24.668,24.838V444.41c0-13.646-10.887-24.832-24.445-24.832c-13.553,0-24.674,11.186-24.674,24.832
				v236.267c-26.889-13.869-54.229-26.848-83.344-30.873c-38.449,1.113-41.56,24.387-15.563,45.416
				c36.012,28.869,72.234,57.955,108.24,87.041c3.563,2.906,7.553,4.693,12.229,5.139v260.514
				C935.719,1010.057,989.016,959.801,1030.441,900.604z"/>
			<path style="fill-rule:evenodd;clip-rule:evenodd;fill:#FEEBD6;" d="M737.508,674.42c1.998,6.703,7.324,13.869,15.99,20.801
				l23.783,19.236c0.668-2.232,0.891-4.693,0.891-7.148c0-18.357-16.008-33.117-35.561-33.117
				C740.83,674.191,739.277,674.191,737.508,674.42L737.508,674.42z"/>
			<path style="fill-rule:evenodd;clip-rule:evenodd;fill:#FEEBD6;" d="M900.193,436.131c-3.551-9.621-12.445-16.553-23.115-16.553
				l0,0c-10.219,0-19.113,6.258-22.664,15.211c0.891,17.449,10.887,31.102,22.887,31.102
				C889.084,465.891,898.863,452.912,900.193,436.131L900.193,436.131z"/>
			<path style="fill-rule:evenodd;clip-rule:evenodd;fill:#4A6173;" d="M869.35,1050.703
				c66.85-40.043,124.049-94.523,167.291-159.147H869.35V1050.703z"/>
			<path style="fill-rule:evenodd;clip-rule:evenodd;fill:#07253F;" d="M855.574,1058.66
				c63.949-35.713,119.66-84.387,163.553-142.494H855.574V1058.66z"/>
		</g>
	</g>
</g>
</svg>
